PathFileType	4	(X/Y/Z)	D:\TRACE\v60_Jaco2_6-2-23\BothDRS_Motion2_4-platform.trc
DataRate	CameraRate	NumFrames	NumMarkers	Units	OrigDataRate	OrigDataStartFrame	OrigNumFrames
100.00	100.00	      36	5	mm	100.00	3751	      7500
Frame#	Time	Left_Front			Right_Front			Left_Aft			Right_Aft			Post			
		X1	Y1	Z1	X2	Y2	Z2	X3	Y3	Z3	X4	Y4	Z4	X5	Y5	Z5	

3751	37.500	-750.98138	64.58583	-623.45776	819.08282	65.86684	-628.64764	-658.76495	-31.51161	507.43976	783.35883	-33.79144	517.16986	35.90156	1385.96045	-838.23859	
3752	37.510	-751.25720	65.53014	-623.40710	818.69348	66.35653	-628.43768	-659.21985	-31.98351	507.62582	782.94080	-34.48775	517.31720	36.05804	1386.71912	-837.69934	
3753	37.520	-751.66113	66.17506	-623.15851	818.38086	66.85735	-628.30035	-659.79510	-32.54530	507.99811	782.55176	-34.81374	517.46790	35.65734	1387.79272	-836.66815	
3754	37.530	-752.00659	66.86140	-622.74103	817.96820	67.50374	-628.22296	-659.97406	-32.91289	508.18240	782.48334	-35.05352	517.61920	35.26921	1388.92969	-835.95868	
3755	37.540	-752.31036	67.43889	-622.23492	817.89447	68.33895	-627.78693	-660.27405	-33.22775	508.21231	781.55237	-35.37368	517.50732	34.39214	1389.69397	-834.31226	
3756	37.550	-752.63208	67.79494	-621.94952	817.45917	69.07375	-627.59290	-660.66797	-33.73420	508.33478	781.09906	-36.00076	517.80438	34.26901	1390.45740	-832.63135	
3757	37.560	-753.11237	68.37207	-621.96631	816.99750	69.50307	-627.56213	-660.97797	-34.38542	508.41324	781.24951	-36.53920	517.87036	34.13390	1391.02393	-830.39099	
3758	37.570	-753.25500	68.94752	-621.77704	816.50934	69.92336	-627.40619	-661.18561	-34.67418	508.27710	780.97058	-37.05478	518.05530	33.18829	1391.54102	-828.10333	
3759	37.580	-753.69086	69.77370	-621.72931	815.95673	70.34935	-627.21515	-661.79730	-35.02223	508.41293	780.51514	-37.44608	517.94073	32.97104	1391.96765	-825.29932	
3760	37.590	-754.27441	70.29012	-621.67822	815.47797	70.71432	-627.02985	-662.30225	-35.34334	508.52750	779.75842	-37.62743	517.95917	32.53674	1392.60376	-822.39386	
3761	37.600	-755.07733	70.73085	-621.63354	815.05823	71.14777	-626.86554	-662.90369	-35.58076	508.67023	778.99139	-37.81923	518.27856	31.92267	1393.04407	-820.27905	
3762	37.610	-755.52081	70.92846	-621.58826	814.54303	71.64038	-626.68646	-663.33978	-35.82352	508.71216	778.58771	-38.18335	518.38324	31.04207	1393.31628	-818.60657	
3763	37.620	-755.90948	71.10346	-621.39624	814.11560	71.80096	-626.62659	-663.90326	-36.15045	508.87323	778.59314	-38.47369	518.43243	30.83275	1393.46851	-817.44824	
3764	37.630	-756.36584	71.36702	-621.06122	813.67621	72.08455	-626.53400	-664.19910	-36.34944	508.92108	778.22638	-38.55104	518.60730	30.52466	1393.94580	-817.37842	
3765	37.640	-756.72894	71.68508	-621.04327	812.93817	72.37010	-626.44452	-664.68585	-36.54333	508.96057	777.64697	-38.05320	518.16083	30.10860	1394.64880	-818.24731	
3766	37.650	-757.27863	71.87470	-620.88580	812.45074	72.66147	-626.34265	-665.42609	-36.64600	509.00266	776.17908	-38.71731	518.50513	29.63985	1395.20874	-819.15411	
3767	37.660	-758.14435	71.94995	-620.75616	812.09747	72.83067	-626.25891	-665.80920	-36.75225	509.05807	776.15918	-38.95927	518.79193	28.64861	1395.43445	-820.29999	
3768	37.670	-758.65784	72.05248	-620.83655	811.43909	72.89075	-626.24878	-666.48578	-37.01725	509.03812	775.93011	-39.52542	518.70996	28.58456	1395.69702	-820.99091	
3769	37.680	-759.41595	72.17631	-620.90338	810.72144	73.05200	-626.14240	-667.19354	-36.97096	508.86996	775.02460	-39.68898	518.74664	28.15117	1395.89758	-821.30322	
3770	37.690	-759.93842	72.22456	-620.75531	810.07910	73.12447	-626.15118	-667.70221	-36.99889	509.07684	774.43671	-39.70634	518.70135	27.32994	1396.09363	-821.27173	
3771	37.700	-760.42133	72.35357	-620.69806	809.45984	73.27608	-626.12488	-668.40479	-36.93284	509.03915	773.52118	-39.38545	519.04803	26.69355	1396.03064	-821.09052	
3772	37.710	-761.19397	72.41102	-620.49225	808.97833	73.41370	-626.16443	-669.10223	-37.09543	508.98093	773.33557	-39.56884	519.11804	26.30771	1396.02454	-820.63190	
3773	37.720	-761.87537	72.37206	-620.57349	808.10236	73.20235	-626.22821	-669.70917	-37.12830	508.99390	772.68018	-39.58644	518.79138	25.10501	1395.94812	-819.44727	
3774	37.730	-762.66296	72.27559	-620.79987	807.39429	72.94518	-626.15582	-670.33417	-37.06267	509.03342	771.80750	-39.44316	518.90051	24.45555	1395.63806	-818.06427	
3775	37.740	-763.36078	72.22205	-620.87183	806.49060	72.78885	-626.18481	-671.26105	-36.96136	509.12601	771.29559	-39.45250	518.95453	23.83013	1395.24817	-817.16339	
3776	37.750	-763.93909	72.19080	-620.76215	805.92822	72.84779	-626.31293	-672.42981	-35.90712	508.50540	770.59100	-39.27985	518.88678	22.69967	1395.19727	-816.33856	
3777	37.760	-764.61749	72.27236	-620.58508	805.34241	73.08167	-626.23315	-672.97736	-35.79426	508.61993	768.86548	-38.70323	519.17310	21.83783	1394.86914	-816.33600	
3778	37.770	-765.51215	72.01220	-620.86835	804.61792	72.89594	-626.21674	-673.91638	-35.78363	508.52313	768.77112	-39.10559	518.74121	21.05400	1394.82593	-816.81006	
3779	37.780	-766.25177	71.43512	-620.98151	803.60773	72.06415	-626.34546	-674.72858	-35.64350	508.18771	768.21869	-39.07148	518.76251	20.77224	1394.64685	-818.25970	
3780	37.790	-767.14081	71.24980	-621.22290	802.97491	71.42700	-626.44336	-675.20673	-35.98071	508.58249	767.03064	-38.73849	518.60175	19.74037	1394.30603	-819.63373	
3781	37.800	-767.71326	70.99459	-621.41919	802.17407	71.50432	-626.46368	-676.35205	-35.71721	508.48621	765.99780	-38.46674	518.97992	19.17830	1394.24060	-821.55524	
3782	37.810	-768.72949	71.17363	-621.02142	801.46423	71.53990	-626.38684	-676.62152	-36.11034	508.93488	765.72107	-38.33128	518.75342	18.46983	1393.96802	-822.83905	
3783	37.820	-769.69415	70.83347	-620.93958	800.57440	71.25669	-626.36328	-677.49341	-35.54825	509.00363	764.66577	-37.92339	518.65460	17.49960	1393.68762	-824.62811	
3784	37.830	-770.45251	70.61684	-621.32758	799.64172	70.69622	-626.71887	-678.59821	-34.97452	508.72559	764.14081	-37.70816	518.64160	16.89517	1393.12830	-825.27783	
3785	37.840	-771.20251	69.41628	-621.57581	798.97211	70.29855	-626.98755	-679.28735	-34.93129	508.45764	763.37506	-37.36489	518.64648	16.05632	1392.45215	-826.06952	
3786	37.850	-772.03406	68.75586	-621.56659	797.89508	69.71132	-627.02368	-680.03052	-34.90963	508.44110	761.82965	-36.87122	519.12402	15.19595	1391.48572	-826.09564	
